<?xml version="1.0" encoding="utf-8"?>
<!-- Generator: Adobe Illustrator 16.0.4, SVG Export Plug-In . SVG Version: 6.00 Build 0)  -->
<!DOCTYPE svg PUBLIC "-//W3C//DTD SVG 1.1//EN" "http://www.w3.org/Graphics/SVG/1.1/DTD/svg11.dtd">
<svg version="1.1" id="Capa_1" xmlns="http://www.w3.org/2000/svg" xmlns:xlink="http://www.w3.org/1999/xlink" x="0px" y="0px"
	 width="120px" height="90px" viewBox="0 0 120 90" enable-background="new 0 0 120 90" xml:space="preserve">
<g>
	<path fill="#FFFFFF" d="M9.046,48.028c-2.116,0-3.778,0.839-4.851,2.36H4.136c0,0-0.065-0.666-0.131-1.025
		C3.747,46.881,0,48.355,0,48.355c0.061,1.375,0.119,2.986,0.119,4.896v15.61h4.525v-7.251h0.059
		c0.654,0.953,2.024,1.671,3.78,1.671c3.239,0,6.602-2.509,6.602-7.821C15.084,50.804,12.23,48.028,9.046,48.028z M7.379,59.789
		c-1.309,0-2.352-0.926-2.646-2.148c-0.06-0.297-0.089-0.598-0.089-0.956v-1.997c0-0.271,0.029-0.568,0.089-0.807
		c0.294-1.345,1.427-2.298,2.707-2.298c2.019,0,3.063,1.759,3.063,4.088C10.502,58.152,9.346,59.789,7.379,59.789z M29.542,54.327
		c0-3.434-1.515-6.299-6.366-6.299c-2.646,0-4.641,0.747-5.652,1.313c0,0-0.303,3.455,1.751,2.449
		c0.896-0.359,2.021-0.628,3.1-0.628c2.234,0,2.648,1.103,2.648,1.88v0.18c-5.15,0-8.541,1.792-8.541,5.583
		c0,2.327,1.759,4.477,4.703,4.477c1.722,0,3.214-0.628,4.164-1.79h0.09c0,0,0.13,0.495,0.162,0.792
		c0.13,1.892,4.184,0.669,4.184,0.669c-0.18-0.805-0.243-2.148-0.243-3.521V54.327z M25.169,57.641c0,0.27-0.029,0.535-0.089,0.776
		c-0.295,0.925-1.249,1.671-2.353,1.671c-1.009,0-1.782-0.566-1.782-1.73c0-1.732,1.843-2.3,4.223-2.3V57.641z M60.536,54.327
		c0-3.434-1.513-6.299-6.365-6.299c-2.646,0-4.642,0.747-5.654,1.313c0,0-0.303,3.455,1.75,2.449
		c0.899-0.359,2.024-0.628,3.103-0.628c2.233,0,2.648,1.103,2.648,1.88v0.18c-5.147,0-8.541,1.792-8.541,5.583
		c0,2.327,1.759,4.477,4.7,4.477c1.725,0,3.217-0.628,4.166-1.79h0.089c0,0,0.131,0.495,0.164,0.792
		c0.13,1.892,4.181,0.669,4.181,0.669c-0.179-0.805-0.242-2.148-0.242-3.521V54.327z M56.165,57.641c0,0.27-0.029,0.535-0.091,0.776
		c-0.295,0.925-1.247,1.671-2.35,1.671c-1.009,0-1.783-0.566-1.783-1.73c0-1.732,1.843-2.3,4.224-2.3V57.641z M46.68,48.355
		c0,0-4.395-1.569-6.084,1.039c-0.164,0.295-2.635,4.046-2.959,4.536c-0.619,0.848-0.456-0.979-0.456-0.979
		s0.032-9.724,0.012-10.245c-0.025-2.698-4.523-0.943-4.523-0.943v21.189c0,0,4.456,1.115,4.503-0.669c0-1.09,0.02-3.867,0.02-3.867
		l1.129-1.464c0,0,2.923,4.871,3.184,5.331c1.01,1.859,5.917,0.669,5.917,0.669l-5.95-8.688L46.68,48.355z M72.619,48.119
		c-0.328-0.058-0.533-0.091-0.951-0.091c-1.428,0-3.184,0.896-3.929,3.046h-0.12c0,0-0.097-1.319-0.127-1.711
		c-0.164-2.416-3.917-1.008-3.917-1.008c0.087,1.256,0.118,2.66,0.118,4.806l-0.031,9.792c0,0,4.555,1.157,4.527-0.712
		c0.014-0.608,0-6.661,0-6.661c0-0.389,0.023-0.717,0.09-1.016c0.295-1.432,1.424-2.299,3.091-2.299
		C73.8,52.561,72.619,48.119,72.619,48.119z"/>
	<path fill="#FFFFFF" d="M25.537,28.61c-0.066,0.293-0.11,0.519-0.11,0.519h-0.044c-0.373-0.732-1.004-1.133-1.779-1.133
		c-1.8,0-3.266,1.874-3.266,5.105c0,2.323,0.854,4.706,3.029,4.706c0.731,0,1.407-0.358,1.741-0.972h0.037v0.594
		c0,1.489-0.511,2.363-1.817,2.363c-0.494,0-0.926-0.086-1.306-0.205c-1.461-0.438-1.027,1.792-1.027,1.792
		c0.691,0.299,1.517,0.458,2.414,0.458c1.422,0,2.434-0.398,3.147-1.072c0.787-0.756,1.162-1.905,1.162-3.991v-5.538
		c0-1.17,0.061-2.202,0.103-3.081C27.82,28.155,25.765,27.469,25.537,28.61z M25.145,34.291c0,0.257-0.037,0.556-0.118,0.776
		c-0.196,0.516-0.531,0.694-0.869,0.694c-0.733,0-1.248-0.915-1.248-2.718c0-1.591,0.375-2.858,1.305-2.858
		c0.438,0,0.716,0.376,0.836,0.794c0.057,0.195,0.094,0.453,0.094,0.713V34.291z M33.795,27.996c-0.714,0-1.482,0.538-1.92,1.571
		h-0.058c0,0-0.068-0.727-0.102-0.957c-0.098-1.076-2.295-0.455-2.295-0.455c0.039,0.896,0.078,1.947,0.078,2.92v6.79
		c0,0,2.607,0.662,2.601-0.426c-0.01-1.186,0.014-4.498,0.014-4.498c0-0.417,0.039-0.753,0.101-0.972
		c0.293-1.015,1.027-1.426,1.581-1.39c1.336,0.086,0.552-2.542,0.552-2.542C34.19,27.996,34.053,27.996,33.795,27.996z
		 M42.416,28.61c0.032-1.141-2.587-0.455-2.587-0.455v6.196c0,0.338-0.06,0.636-0.157,0.833c-0.118,0.321-0.393,0.656-0.829,0.656
		c-0.732,0-0.971-0.813-0.971-2.086c0,0-0.01-4.851-0.01-5.145c0.035-1.141-2.601-0.455-2.601-0.455v5.878
		c0,2.622,0.752,3.989,2.59,3.989c0.992,0,1.78-0.534,2.235-1.188h0.04c0,0,0.045,0.389,0.111,0.65
		c0.13,1.109,2.266,0.381,2.266,0.381c-0.04-0.913-0.081-1.927-0.081-2.958C42.422,34.908,42.416,28.839,42.416,28.61z
		 M48.638,27.996c-0.893,0-1.625,0.479-2.019,1.274h-0.039c0,0-0.033-0.235-0.066-0.465c-0.065-1.14-2.294-0.453-2.294-0.453
		c0.041,0.916,0.041,1.713,0.041,2.883v10.442c0,0,2.579,0.899,2.579-0.473s0.018-4.133,0.018-4.133h0.039
		c0.275,0.458,0.81,0.951,1.604,0.951c1.619,0,3.144-1.565,3.144-5.021C51.643,30.302,50.775,27.996,48.638,27.996z M47.824,35.902
		c-0.298,0-0.632-0.16-0.832-0.757c-0.096-0.195-0.135-0.495-0.135-0.833V31.71c0-0.238,0.019-0.495,0.115-0.691
		c0.102-0.458,0.474-0.834,0.876-0.834c0.771,0,1.203,0.989,1.203,2.839C49.051,34.548,48.734,35.902,47.824,35.902z M56.531,27.996
		c-1.92,0-3.739,1.553-3.739,5.047c0,3.154,1.382,4.979,3.697,4.979h0.024c1.44,0,3.678-0.992,3.678-5.042
		C60.191,29.923,58.81,27.996,56.531,27.996z M56.531,36.041h-0.018c-0.912,0-1.169-1.391-1.169-3.06
		c0-1.329,0.198-3.018,1.145-3.018c0.873,0,1.093,1.689,1.093,3.018C57.583,34.413,57.363,36.041,56.531,36.041z"/>
	<path fill="#FFFFFF" d="M29.511,68.143c-0.293,0-0.538,0.07-0.758,0.195c-0.204,0.115-0.37,0.28-0.526,0.492h-0.016
		c-0.176-0.416-0.579-0.688-1.101-0.688c-0.686,0-1.044,0.377-1.214,0.642h-0.021c0,0-0.029-0.205-0.033-0.281
		c-0.045-0.608-1.081-0.273-1.081-0.273c0.017,0.364,0.034,0.783,0.034,1.284v2.74c0,0,1.206,0.352,1.206-0.232
		c0-0.111,0.008-2.104,0.008-2.104c0-0.105,0.009-0.223,0.051-0.318c0.071-0.2,0.262-0.447,0.581-0.447
		c0.403,0,0.583,0.346,0.583,0.848v2.254c0,0,1.21,0.36,1.21-0.232c0-0.145,0-2.119,0-2.119c0-0.102,0.02-0.226,0.043-0.312
		c0.092-0.238,0.292-0.438,0.583-0.438c0.406,0,0.59,0.336,0.59,0.922v2.18c0,0,1.209,0.36,1.209-0.232
		c0-0.127,0.008-2.135,0.008-2.135C30.868,68.684,30.281,68.143,29.511,68.143z M34.322,68.164c-0.091-0.018-0.15-0.021-0.266-0.021
		c-0.392,0-0.876,0.244-1.081,0.84h-0.033c0,0-0.022-0.377-0.032-0.479c-0.033-0.601-1.08-0.273-1.08-0.273
		c0.025,0.348,0.029,0.732,0.029,1.327l-0.004,2.697c0,0,1.25,0.352,1.25-0.241c0-0.118-0.008-1.79-0.008-1.79
		c0-0.105,0.008-0.195,0.024-0.279c0.083-0.396,0.394-0.634,0.852-0.634C34.619,69.35,34.322,68.164,34.322,68.164z"/>
	<path fill="#FFFFFF" d="M109.603,16.225C101.369,6.315,88.979,0,75.145,0l0,0c-0.004,0-0.01,0-0.016,0
		C59.132,0,45.1,8.472,37.158,21.158h0.004c-0.541,0.783-0.747,1.055-0.747,1.055s2.292,2.515,4.225-0.315
		C48.09,10.729,60.758,3.346,75.133,3.339C87.434,3.342,98.5,8.736,106.109,17.292c-2.546,1.051-4.08-0.188-7.141-2.027
		c-3.27-1.963-7.631,1.174-10.958,3.589c-3.327,2.417-5.034,3.84-10.851,2.761c-5.82-1.08-5.312,9.255,1.998,8.937
		c2.492-0.11,5.689-0.908,6.799-1.142c3.638-0.761,5.724-0.789,8.453-0.123c3.385,0.831,2.961,4.131,2.961,4.131
		c0.09,0.466,1.754,0.072,4.143,0.708c2.103,0.56,3.216,1.582,3.615,1.263c0.973-0.769,3.115-3.109,7.077-1.627
		c2.548,0.953,3.542,4.085,4.288,7.615c0.102,1.193,0.159,2.4,0.159,3.619c0,8.692-2.665,16.77-7.222,23.452
		c-0.795-0.134-4.381-0.158-6.936-3.777c-0.9-1.304-0.72-3.061,1.083-4.596c1.807-1.536,7.546-5.195,7.347-11.462
		c-0.204-6.267-4.012-10.462-8.986-12.528c-2.365-0.981-5.891-1.145-8.91-0.662c-1.349,0.179-2.634,0.56-3.831,1.096
		c1.149,3.37,4.149,6.561,6.582,8.731c0.735-0.516,1.628-0.825,2.593-0.839c2.572-0.039,4.683,2.025,4.721,4.594
		c0.031,2.577-2.014,4.699-4.586,4.732c-1.006,0.015-1.938-0.295-2.706-0.83c-2.753,1.525-6.405,3.856-8.763,6.318
		c0.621,0.07,1.285,0.18,1.727,0.609c0.916,0.885,0.77,1.994,0.578,3.02c-0.297,1.554-2.088,4.188-6.331,4.801
		c-17.105,1.653-26.029,8.215-26.7,9.023c0.202,0.948,0.331,2.965,0.418,5.643c-6.248-3.125-11.604-7.783-15.585-13.48h-0.013
		c-0.171-0.244-0.342-0.49-0.509-0.738c-1.932-2.832-4.191-0.307-4.191-0.307s0.21,0.316,0.889,1.299
		c4.692,7.395,11.467,13.334,19.494,16.966C62.405,88.588,68.605,90,75.129,90h0.016c15.884,0,29.863-8.323,37.838-20.855
		c3.739-5.877,6.153-12.685,6.824-19.991c0.123-1.365,0.193-2.752,0.193-4.15C120,34.065,116.091,24.029,109.603,16.225z
		 M106.038,72.79c-0.006,0.006-0.012,0.014-0.02,0.021l0,0c-0.111,0.125-0.229,0.249-0.343,0.373
		c-0.062,0.066-0.121,0.135-0.184,0.199c-0.075,0.082-0.146,0.164-0.225,0.244c-0.027,0.029-0.057,0.058-0.084,0.087
		c-3.467-0.474-7.459-0.774-12.027-0.774h-0.213c-0.046,0-0.089,0.001-0.134,0.001v9.749c-5.363,2.544-11.354,3.97-17.671,3.972
		c-0.247,0-0.494-0.007-0.739-0.011h0.007c0.018-0.957,0.062-3.244,0.135-5.18h-0.002h0.002c0.018-0.465,0.037-0.906,0.057-1.307
		l0.637-5.428c-8.063,1.826-12.127,4.508-13.24,5.346c0.125,0.998,0.199,2.557,0.24,4.503l0,0l0,0v0.004
		c-0.709-0.232-1.408-0.483-2.1-0.757c-0.05-1.873-0.138-3.275-0.281-3.949l-0.102-0.492l0.32-0.393
		c0.578-0.693,3.415-2.709,8.506-4.516c4.672-1.655,12.686-3.633,24.365-3.633h0.213c5.311,0,9.86,0.41,13.686,1.012
		c-0.264,0.315-0.541,0.617-0.815,0.924C106.03,72.788,106.034,72.788,106.038,72.79z M87.004,34.163
		c-7.436,2.191-8.121,9.113-8.121,9.113l15.023,4.798c0.128-0.578,0.357-1.113,0.673-1.588
		C91.352,43.591,87.188,38.953,87.004,34.163z M83.343,61.633c1.538-4.025,7.497-7.902,11.219-10
		c-0.171-0.262-0.313-0.541-0.433-0.835l-15.266,3.403C78.863,54.201,79.572,60.338,83.343,61.633z M98.488,52.213
		c1.727-0.024,3.104-1.449,3.084-3.182c-0.025-1.73-1.445-3.121-3.176-3.092c-1.723,0.023-3.104,1.447-3.078,3.182
		C95.34,50.851,96.762,52.237,98.488,52.213z M78.943,49.91c0.13,0.25,1.158,1.836,1.158,1.836s0.369,0.577,0.688,0.545
		c0.314-0.029,11.522-2.32,12.359-2.467c0.829-0.144,0.746-0.359,0-0.605c-0.752-0.244-11.477-3.554-11.832-3.657
		c-0.358-0.106-0.713,0.416-0.713,0.416s-1.234,2.021-1.654,2.726C78.53,49.404,78.569,49.285,78.943,49.91z"/>
</g>
</svg>
